<svg version="1.1" xmlns="http://www.w3.org/2000/svg" viewBox="0 0 24 24">
  <defs>
    <linearGradient id="rustGradient" x1="0%" y1="0%" x2="100%" y2="100%">
      <stop offset="0%" style="stop-color:#FF8000; stop-opacity:1" />
      <stop offset="100%" style="stop-color:#FF4500; stop-opacity:1" />
    </linearGradient>
  </defs>
  <g fill="url(#rustGradient)">
    <path d="M12,0C5.37,0,0,5.37,0,12s5.37,12,12,12s12-5.37,12-12S18.63,0,12,0z M12,22c-5.52,0-10-4.48-10-10S6.48,2,12,2 s10,4.48,10,10S17.52,22,12,22z"/>
    <path d="M15.5,8H13V6h-2v2H8.5L7,12l1.5,4H11v2h2v-2h2.5l1.5-4L15.5,8z M12,14l-2-2l2-2l2,2L12,14z"/>
  </g>
</svg>
